<svg width="56" height="56" viewBox="0 0 56 56" fill="none" xmlns="http://www.w3.org/2000/svg">
<g clip-path="url(#clip0_13_279)">
<rect width="56" height="56" rx="16" fill="white"/>
<rect width="56" height="56" fill="url(#paint0_linear_13_279)"/>
<path d="M34.5478 28C34.5478 32.2955 31.2319 35.7778 27.1414 35.7778H15.3514C15.0357 35.7778 14.8648 35.3896 15.0692 35.137L20.6422 28.2519C20.7597 28.1066 20.7597 27.8934 20.6422 27.7481L15.0692 20.863C14.8648 20.6104 15.0357 20.2222 15.3514 20.2222H27.1414C31.2319 20.2222 34.5478 23.7044 34.5478 28Z" fill="white"/>
<path d="M44.9167 28C44.9167 38.3093 36.9584 46.6667 27.1414 46.6667H12.3287C12.1242 46.6667 11.9584 46.4926 11.9584 46.2778V41.6111C11.9584 41.3963 12.1242 41.2222 12.3287 41.2222H27.1414C34.0951 41.2222 39.7323 35.3024 39.7323 28C39.7323 20.6976 34.0951 14.7778 27.1414 14.7778H12.3287C12.1242 14.7778 11.9584 14.6037 11.9584 14.3889V9.72222C11.9584 9.50744 12.1242 9.33333 12.3287 9.33333H27.1414C36.9584 9.33333 44.9167 17.6907 44.9167 28Z" fill="white"/>
</g>
<defs>
<linearGradient id="paint0_linear_13_279" x1="28" y1="0" x2="28" y2="66.2083" gradientUnits="userSpaceOnUse">
<stop offset="0.34375" stop-color="#4C79FF"/>
<stop offset="1" stop-color="#2643B7"/>
</linearGradient>
<clipPath id="clip0_13_279">
<rect width="56" height="56" rx="16" fill="white"/>
</clipPath>
</defs>
</svg>
