<svg width="56" height="56" viewBox="0 0 56 56" fill="none" xmlns="http://www.w3.org/2000/svg">
<g clip-path="url(#clip0_39_2)">
<mask id="mask0_39_2" style="mask-type:luminance" maskUnits="userSpaceOnUse" x="0" y="0" width="56" height="56">
<path d="M40 0H16C7.16344 0 0 7.16344 0 16V40C0 48.8366 7.16344 56 16 56H40C48.8366 56 56 48.8366 56 40V16C56 7.16344 48.8366 0 40 0Z" fill="white"/>
</mask>
<g mask="url(#mask0_39_2)">
<path d="M40 0H16C7.16344 0 0 7.16344 0 16V40C0 48.8366 7.16344 56 16 56H40C48.8366 56 56 48.8366 56 40V16C56 7.16344 48.8366 0 40 0Z" fill="white"/>
<path d="M56 0H0V56H56V0Z" fill="url(#paint0_linear_39_2)"/>
<path d="M41.7188 19.8438V35.1563C41.7188 36.0265 41.373 36.8611 40.7577 37.4764C40.1423 38.0918 39.3077 38.4375 38.4375 38.4375H16.5625C15.6923 38.4375 14.8577 38.0918 14.2423 37.4764C13.627 36.8611 13.2813 36.0265 13.2813 35.1563V19.8438M41.7188 19.8438C41.7188 18.9735 41.373 18.1389 40.7577 17.5236C40.1423 16.9082 39.3077 16.5625 38.4375 16.5625H16.5625C15.6923 16.5625 14.8577 16.9082 14.2423 17.5236C13.627 18.1389 13.2813 18.9735 13.2813 19.8438M41.7188 19.8438V20.1981C41.7188 20.7583 41.5753 21.3092 41.3022 21.7983C41.0291 22.2875 40.6352 22.6985 40.1582 22.9923L29.2208 29.7225C28.7034 30.0412 28.1077 30.2099 27.5 30.2099C26.8923 30.2099 26.2966 30.0412 25.7792 29.7225L14.8417 22.9937C14.3647 22.6999 13.9709 22.2889 13.6977 21.7998C13.4246 21.3107 13.2812 20.7598 13.2813 20.1996V19.8438" stroke="#24292F" stroke-width="3" stroke-linecap="round" stroke-linejoin="round"/>
</g>
</g>
<defs>
<linearGradient id="paint0_linear_39_2" x1="28" y1="0" x2="28" y2="56" gradientUnits="userSpaceOnUse">
<stop stop-color="#F1F5F9"/>
<stop offset="1" stop-color="#E2E8F0"/>
</linearGradient>
<clipPath id="clip0_39_2">
<rect width="56" height="56" fill="white"/>
</clipPath>
</defs>
</svg>
