<svg width="56" height="56" viewBox="0 0 56 56" fill="none" xmlns="http://www.w3.org/2000/svg">
<g clip-path="url(#clip0_39_47)">
<mask id="mask0_39_47" style="mask-type:luminance" maskUnits="userSpaceOnUse" x="0" y="0" width="56" height="56">
<path d="M40 0H16C7.16344 0 0 7.16344 0 16V40C0 48.8366 7.16344 56 16 56H40C48.8366 56 56 48.8366 56 40V16C56 7.16344 48.8366 0 40 0Z" fill="white"/>
</mask>
<g mask="url(#mask0_39_47)">
<path d="M40 0H16C7.16344 0 0 7.16344 0 16V40C0 48.8366 7.16344 56 16 56H40C48.8366 56 56 48.8366 56 40V16C56 7.16344 48.8366 0 40 0Z" fill="white"/>
<path d="M56 0H0V56H56V0Z" fill="url(#paint0_linear_39_47)"/>
<mask id="mask1_39_47" style="mask-type:luminance" maskUnits="userSpaceOnUse" x="10" y="10" width="36" height="35">
<path d="M46 10H10V45H46V10Z" fill="white"/>
</mask>
<g mask="url(#mask1_39_47)">
<path fill-rule="evenodd" clip-rule="evenodd" d="M27.9464 10C18.0225 10 10 18.0208 10 27.9437C10 35.8756 15.1403 42.5897 22.2712 44.9661C23.1628 45.1447 23.4893 44.58 23.4893 44.105C23.4893 43.689 23.46 42.2631 23.46 40.7774C18.4677 41.8471 17.4281 38.6384 17.4281 38.6384C16.6258 36.5588 15.4371 36.0243 15.4371 36.0243C13.8031 34.9251 15.5561 34.9251 15.5561 34.9251C17.3686 35.044 18.3197 36.767 18.3197 36.767C19.9239 39.4999 22.5089 38.7277 23.5489 38.2523C23.6973 37.0936 24.173 36.2916 24.6781 35.846C20.6964 35.4301 16.5072 33.8853 16.5072 26.9929C16.5072 25.0321 17.2198 23.428 18.3491 22.1804C18.1709 21.7348 17.5468 19.8926 18.5276 17.4269C18.5276 17.4269 20.0429 16.9515 23.4596 19.2688C24.9224 18.876 26.431 18.6762 27.9464 18.6745C29.4617 18.6745 31.0064 18.8827 32.4328 19.2688C35.8498 16.9515 37.3651 17.4269 37.3651 17.4269C38.346 19.8926 37.7215 21.7348 37.5433 22.1804C38.7023 23.428 39.3856 25.0321 39.3856 26.9929C39.3856 33.8853 35.1963 35.4002 31.1849 35.846C31.8388 36.4104 32.403 37.4797 32.403 39.1732C32.403 41.5795 32.3736 43.5107 32.3736 44.1046C32.3736 44.58 32.7006 45.1447 33.5918 44.9665C40.7227 42.5894 45.863 35.8756 45.863 27.9437C45.8924 18.0208 37.8405 10 27.9464 10Z" fill="#24292F"/>
</g>
</g>
</g>
<defs>
<linearGradient id="paint0_linear_39_47" x1="28" y1="0" x2="28" y2="56" gradientUnits="userSpaceOnUse">
<stop stop-color="#F1F5F9"/>
<stop offset="1" stop-color="#E2E8F0"/>
</linearGradient>
<clipPath id="clip0_39_47">
<rect width="56" height="56" fill="white"/>
</clipPath>
</defs>
</svg>
