<svg width="56" height="56" viewBox="0 0 56 56" fill="none" xmlns="http://www.w3.org/2000/svg">
<g clip-path="url(#clip0_39_34)">
<mask id="mask0_39_34" style="mask-type:luminance" maskUnits="userSpaceOnUse" x="0" y="0" width="56" height="56">
<path d="M40 0H16C7.16344 0 0 7.16344 0 16V40C0 48.8366 7.16344 56 16 56H40C48.8366 56 56 48.8366 56 40V16C56 7.16344 48.8366 0 40 0Z" fill="white"/>
</mask>
<g mask="url(#mask0_39_34)">
<path d="M40 0H16C7.16344 0 0 7.16344 0 16V40C0 48.8366 7.16344 56 16 56H40C48.8366 56 56 48.8366 56 40V16C56 7.16344 48.8366 0 40 0Z" fill="white"/>
<path d="M56 0H0V56H56V0Z" fill="url(#paint0_linear_39_34)"/>
<mask id="mask1_39_34" style="mask-type:luminance" maskUnits="userSpaceOnUse" x="11" y="11" width="34" height="34">
<path d="M45 11H11V45H45V11Z" fill="white"/>
</mask>
<g mask="url(#mask1_39_34)">
<path fill-rule="evenodd" clip-rule="evenodd" d="M14.7778 45H41.2222C43.3086 45 45 43.3086 45 41.2222V14.7778C45 12.6914 43.3086 11 41.2222 11H14.7778C12.6914 11 11 12.6914 11 14.7778V41.2222C11 43.3086 12.6914 45 14.7778 45Z" fill="#007EBB"/>
<path fill-rule="evenodd" clip-rule="evenodd" d="M40.2777 40.2778H35.2323V31.6843C35.2323 29.3283 34.3371 28.0116 32.4722 28.0116C30.4435 28.0116 29.3836 29.3818 29.3836 31.6843V40.2778H24.5212V23.9074H29.3836V26.1125C29.3836 26.1125 30.8456 23.4073 34.3195 23.4073C37.7918 23.4073 40.2777 25.5277 40.2777 29.9131V40.2778ZM18.7205 21.7638C17.0643 21.7638 15.7222 20.4112 15.7222 18.743C15.7222 17.0748 17.0643 15.7222 18.7205 15.7222C20.3767 15.7222 21.718 17.0748 21.718 18.743C21.718 20.4112 20.3767 21.7638 18.7205 21.7638ZM16.2098 40.2778H21.2799V23.9074H16.2098V40.2778Z" fill="white"/>
</g>
</g>
</g>
<defs>
<linearGradient id="paint0_linear_39_34" x1="28" y1="0" x2="28" y2="56" gradientUnits="userSpaceOnUse">
<stop stop-color="#F1F5F9"/>
<stop offset="1" stop-color="#E2E8F0"/>
</linearGradient>
<clipPath id="clip0_39_34">
<rect width="56" height="56" fill="white"/>
</clipPath>
</defs>
</svg>
