<svg width="56" height="56" viewBox="0 0 56 56" fill="none" xmlns="http://www.w3.org/2000/svg">
<g clip-path="url(#clip0_13_283)">
<rect width="56" height="56" rx="16" fill="white"/>
<rect width="56" height="56" fill="url(#paint0_linear_13_283)"/>
<g clip-path="url(#clip1_13_283)">
<path d="M27.4989 5.0742C15.1108 5.0742 5.06775 15.117 5.06775 27.5051C5.06775 39.8938 15.1108 49.9357 27.4989 49.9357C39.8884 49.9357 49.9303 39.8938 49.9303 27.5051C49.9303 15.1178 39.8884 5.07527 27.4986 5.07527L27.4989 5.0742ZM37.7857 37.426C37.3839 38.0849 36.5214 38.2938 35.8625 37.8894C30.5959 34.6724 23.9659 33.9438 16.1578 35.7278C15.4054 35.8992 14.6554 35.4278 14.484 34.6751C14.3118 33.9224 14.7813 33.1724 15.5356 33.001C24.0803 31.048 31.4096 31.8894 37.3223 35.5028C37.9812 35.9072 38.1902 36.7671 37.7857 37.426ZM40.5312 31.3175C40.025 32.1412 38.9482 32.401 38.1259 31.8947C32.0964 28.1879 22.9054 27.1146 15.7737 29.2794C14.8488 29.5588 13.8719 29.0375 13.5912 28.1142C13.3127 27.1893 13.8342 26.2143 14.7575 25.933C22.9038 23.4613 33.0312 24.6586 39.9553 28.9135C40.7777 29.4197 41.0375 30.4963 40.5312 31.3175ZM40.7669 24.9575C33.5375 20.6635 21.6098 20.2687 14.7074 22.3636C13.599 22.6997 12.4269 22.074 12.091 20.9656C11.7551 19.8567 12.3802 18.6854 13.4894 18.3484C21.4129 15.943 34.5848 16.4078 42.9082 21.3489C43.9073 21.9406 44.2341 23.2282 43.6421 24.2238C43.0528 25.2208 41.7618 25.5495 40.768 24.9575H40.7669Z" fill="#1DB954"/>
</g>
</g>
<defs>
<linearGradient id="paint0_linear_13_283" x1="28" y1="0" x2="28" y2="56" gradientUnits="userSpaceOnUse">
<stop stop-color="#10341D"/>
<stop offset="1"/>
</linearGradient>
<clipPath id="clip0_13_283">
<rect width="56" height="56" rx="16" fill="white"/>
</clipPath>
<clipPath id="clip1_13_283">
<rect width="45" height="45" fill="white" transform="translate(5 5)"/>
</clipPath>
</defs>
</svg>
