<svg width="56" height="56" viewBox="0 0 56 56" fill="none" xmlns="http://www.w3.org/2000/svg">
<g clip-path="url(#clip0_39_22)">
<mask id="mask0_39_22" style="mask-type:luminance" maskUnits="userSpaceOnUse" x="0" y="0" width="56" height="56">
<path d="M40 0H16C7.16344 0 0 7.16344 0 16V40C0 48.8366 7.16344 56 16 56H40C48.8366 56 56 48.8366 56 40V16C56 7.16344 48.8366 0 40 0Z" fill="white"/>
</mask>
<g mask="url(#mask0_39_22)">
<path d="M40 0H16C7.16344 0 0 7.16344 0 16V40C0 48.8366 7.16344 56 16 56H40C48.8366 56 56 48.8366 56 40V16C56 7.16344 48.8366 0 40 0Z" fill="white"/>
<path d="M56 0H0V56H56V0Z" fill="url(#paint0_linear_39_22)"/>
<mask id="mask1_39_22" style="mask-type:luminance" maskUnits="userSpaceOnUse" x="11" y="14" width="33" height="27">
<path d="M44 14H11V41H44V14Z" fill="white"/>
</mask>
<g mask="url(#mask1_39_22)">
<path d="M40.5337 20.7884C40.5536 21.0756 40.5536 21.3628 40.5536 21.6526C40.5536 30.4846 33.7939 40.6704 21.4336 40.6704V40.6651C17.7823 40.6704 14.2068 39.6301 11.1331 37.6687C11.664 37.7322 12.1976 37.764 12.7325 37.7653C15.7584 37.7679 18.6978 36.7581 21.0783 34.8985C18.2028 34.8443 15.6812 32.9794 14.8003 30.2569C15.8076 30.4501 16.8455 30.4104 17.8342 30.1418C14.6992 29.5118 12.4437 26.7721 12.4437 23.5903V23.5056C13.3779 24.0231 14.4237 24.3103 15.4936 24.3421C12.5409 22.3793 11.6307 18.4722 13.4138 15.4175C16.8256 19.5932 21.8594 22.1318 27.2631 22.4004C26.7216 20.079 27.4614 17.6463 29.2072 16.0144C31.9137 13.4838 36.1705 13.6135 38.7147 16.3043C40.2196 16.0091 41.6621 15.4599 42.9821 14.6816C42.4804 16.2288 41.4305 17.5431 40.028 18.3782C41.36 18.2221 42.6614 17.8674 43.8869 17.326C42.9847 18.6707 41.8483 19.8421 40.5337 20.7884Z" fill="#1D9BF0"/>
</g>
</g>
</g>
<defs>
<linearGradient id="paint0_linear_39_22" x1="28" y1="0" x2="28" y2="56" gradientUnits="userSpaceOnUse">
<stop stop-color="#F1F5F9"/>
<stop offset="1" stop-color="#E2E8F0"/>
</linearGradient>
<clipPath id="clip0_39_22">
<rect width="56" height="56" fill="white"/>
</clipPath>
</defs>
</svg>
